<?xml version="1.0" encoding="utf-8"?>
<!-- Generator: Adobe Illustrator 26.0.2, SVG Export Plug-In . SVG Version: 6.00 Build 0)  -->
<svg version="1.1" id="Calque_1" xmlns="http://www.w3.org/2000/svg" xmlns:xlink="http://www.w3.org/1999/xlink" x="0px" y="0px"
	 viewBox="0 0 292.2 56" style="enable-background:new 0 0 292.2 56;" xml:space="preserve">
<style type="text/css">
	.st0{fill:#FFFFFF;}
	.st1{fill:#333F90;}
	.st2{fill-rule:evenodd;clip-rule:evenodd;fill:#333F90;}
</style>
<g>
	<path class="st0" d="M111.6,17.6c0,0.7-0.2,1.4-0.7,1.8c-0.5,0.5-1.1,0.7-1.8,0.7h-9.5v5.7h7.1c0.7,0,1.4,0.2,1.8,0.7
		c0.5,0.5,0.7,1.1,0.7,1.8c0,0.7-0.2,1.4-0.7,1.8c-0.5,0.5-1.1,0.7-1.8,0.7h-7.1v5.7h9.5c0.7,0,1.4,0.2,1.8,0.7
		c0.5,0.5,0.7,1.1,0.7,1.8c0,0.7-0.2,1.4-0.7,1.8c-0.5,0.5-1.1,0.7-1.8,0.7H97c-0.7,0-1.3-0.3-1.8-0.8c-0.5-0.5-0.8-1.1-0.8-1.8
		V17.6c0-0.7,0.3-1.3,0.8-1.8c0.5-0.5,1.1-0.8,1.8-0.8h2.3c-0.9-0.5-1.3-1.3-1.3-2.3c0-1,0.5-1.7,1.4-2.2l4.8-2.4
		c0.4-0.2,0.8-0.3,1.2-0.3c0.7,0,1.3,0.3,1.8,0.8c0.5,0.5,0.7,1.2,0.7,1.9c0,1-0.5,1.7-1.4,2.2l-4.7,2.4h7.2c0.7,0,1.4,0.2,1.8,0.7
		C111.3,16.2,111.6,16.9,111.6,17.6z"/>
	<path class="st0" d="M141,17.6c0,0.7-0.2,1.4-0.7,1.8c-0.5,0.5-1.1,0.7-1.8,0.7h-4.7v19.1c0,0.7-0.2,1.4-0.7,1.8
		c-0.5,0.5-1.1,0.7-1.8,0.7c-0.7,0-1.4-0.2-1.8-0.7c-0.5-0.5-0.7-1.1-0.7-1.8V20.2H124c-0.7,0-1.4-0.2-1.8-0.7
		c-0.5-0.5-0.7-1.1-0.7-1.8c0-0.7,0.2-1.4,0.7-1.8c0.5-0.5,1.1-0.7,1.8-0.7h14.4c0.7,0,1.4,0.2,1.8,0.7
		C140.8,16.2,141,16.9,141,17.6z"/>
	<path class="st0" d="M174.4,39.4c0,0.7-0.3,1.3-0.8,1.8c-0.5,0.5-1.2,0.7-1.9,0.7c-1,0-1.7-0.5-2.2-1.4l-2.9-5.8h-11.3l-2.9,5.8
		c-0.5,1-1.2,1.4-2.2,1.4c-0.7,0-1.3-0.2-1.9-0.7c-0.5-0.5-0.8-1.1-0.8-1.8c0-0.4,0.1-0.8,0.3-1.2l10.6-21.2
		c0.6-1.3,1.5-1.9,2.5-1.9c1,0,1.9,0.6,2.5,1.9l10.6,21.2C174.3,38.6,174.4,39,174.4,39.4z M164,29.5l-3.1-6.1l-3.1,6.1H164z"/>
	<path class="st0" d="M203.1,33.3c0,2.4-0.8,4.4-2.5,6.1c-1.7,1.7-3.7,2.5-6.1,2.5l-6,0c-0.7,0-1.3-0.3-1.8-0.8
		c-0.5-0.5-0.8-1.1-0.8-1.8V17.6c0-0.7,0.3-1.3,0.8-1.8c0.5-0.5,1.1-0.8,1.8-0.8h6c2,0,3.8,0.7,5.2,2.2c1.4,1.4,2.2,3.2,2.2,5.2
		c0,1.7-0.5,3.2-1.6,4.5C202.1,28.7,203.1,30.8,203.1,33.3z M196.7,22.4c0-0.6-0.2-1.2-0.7-1.6c-0.4-0.4-1-0.7-1.6-0.7H191v4.5h3.5
		c0.6,0,1.1-0.2,1.6-0.7C196.5,23.6,196.7,23,196.7,22.4z M197.9,33.3c0-1-0.3-1.8-1-2.5c-0.7-0.7-1.5-1-2.4-1H191v6.9h3.4
		c1,0,1.8-0.3,2.5-1C197.6,35.1,197.9,34.3,197.9,33.3z"/>
	<path class="st0" d="M231.7,39.3c0,0.7-0.2,1.4-0.7,1.8c-0.5,0.5-1.1,0.7-1.8,0.7h-12c-0.7,0-1.3-0.3-1.8-0.8
		c-0.5-0.5-0.8-1.1-0.8-1.8V17.6c0-0.7,0.2-1.4,0.7-1.8c0.5-0.5,1.1-0.7,1.8-0.7c0.7,0,1.4,0.2,1.8,0.7c0.5,0.5,0.7,1.1,0.7,1.8
		v19.1h9.5c0.7,0,1.4,0.2,1.8,0.7C231.5,37.9,231.7,38.5,231.7,39.3z"/>
	<path class="st0" d="M247.5,39.3c0,0.7-0.2,1.4-0.7,1.8c-0.5,0.5-1.1,0.7-1.8,0.7c-0.7,0-1.4-0.2-1.8-0.7c-0.5-0.5-0.7-1.1-0.7-1.8
		V23.7c0-0.7,0.2-1.4,0.7-1.8c0.5-0.5,1.1-0.7,1.8-0.7c0.7,0,1.4,0.2,1.8,0.7c0.5,0.5,0.7,1.1,0.7,1.8V39.3z"/>
	<path class="st1" d="M277.8,39.3c0,0.7-0.3,1.3-0.8,1.8c-0.5,0.5-1.1,0.8-1.8,0.8c-0.7,0-1.3-0.3-1.8-0.8l-7.7-7.6v5.8
		c0,0.7-0.2,1.4-0.7,1.8c-0.5,0.5-1.1,0.7-1.8,0.7c-0.7,0-1.4-0.2-1.8-0.7c-0.5-0.5-0.7-1.1-0.7-1.8V17.6c0-0.7,0.3-1.3,0.8-1.8
		c0.5-0.5,1.1-0.8,1.8-0.8h6c2.4,0,4.4,0.8,6.1,2.5c1.7,1.7,2.5,3.7,2.5,6.1c0,1.9-0.6,3.7-1.7,5.2c-1.2,1.5-2.7,2.6-4.6,3.1
		l5.6,5.6C277.6,38,277.8,38.6,277.8,39.3z M272.6,23.6c0-1-0.3-1.8-1-2.4c-0.7-0.7-1.5-1-2.4-1h-3.5v6.9h3.5c1,0,1.8-0.3,2.4-1
		C272.3,25.4,272.6,24.6,272.6,23.6z"/>
</g>
<path class="st1" d="M18.3,36.7c-1.3,0-2.4-0.8-2.9-2c-2.2-5.9-0.7-12.6,3.7-17c4.4-4.4,11.1-5.9,17-3.7c1.3,0.5,2.2,1.7,2.1,3.1
	c-0.2,2.2-2.3,3.4-4.2,2.7c-3.7-1.4-7.8-0.5-10.6,2.3c-2.7,2.7-3.6,6.8-2.3,10.5c0.5,1.3,0.2,2.7-0.9,3.6
	C19.7,36.4,19,36.7,18.3,36.7z"/>
<circle class="st2" cx="42.5" cy="22.5" r="3.1"/>
<ellipse class="st2" cx="24.4" cy="40.5" rx="3.1" ry="3.1"/>
<path class="st1" d="M67.5,45.2c-1.9,0-3.8-0.3-5.6-1c-1.3-0.5-2.2-1.7-2.1-3.1c0.2-2.2,2.3-3.4,4.2-2.7c3.7,1.4,7.8,0.5,10.6-2.3
	c2.7-2.7,3.6-6.8,2.3-10.4c-0.5-1.3-0.1-2.9,1-3.7c1.7-1.2,4-0.4,4.7,1.4c2.2,5.9,0.7,12.6-3.7,17C75.9,43.5,71.7,45.2,67.5,45.2z"
	/>
<path class="st0" d="M67.2,14.8c-0.7-1.2-2.2-1.8-3.5-1.4c-2.9,0.7-5.5,2.2-7.5,4.2l-9.2,9.2l-9,9c-1.4,1.4-3,2.5-4.9,2.9
	c-1.7,0.4-2.8,2-2.4,3.7c0.3,1.4,1.6,2.4,3,2.4c0.2,0,0.5,0,0.7-0.1c2.9-0.7,5.6-2.2,7.7-4.3l9.2-9.2l9.2-9.2
	c1.3-1.3,2.9-2.2,4.7-2.6C67.1,18.9,68.2,16.7,67.2,14.8z"/>
<circle class="st2" cx="55.6" cy="35.6" r="3.1"/>
<ellipse class="st2" cx="73.7" cy="17.5" rx="3.1" ry="3.1"/>
<ellipse class="st2" cx="245" cy="16.4" rx="3.1" ry="3.1"/>
</svg>
