<?xml version="1.0" encoding="utf-8"?>
<!-- Generator: Adobe Illustrator 26.0.2, SVG Export Plug-In . SVG Version: 6.00 Build 0)  -->
<svg version="1.1" id="Calque_1" xmlns="http://www.w3.org/2000/svg" xmlns:xlink="http://www.w3.org/1999/xlink" x="0px" y="0px"
	 viewBox="0 0 640 512" style="enable-background:new 0 0 640 512;" xml:space="preserve">
<style type="text/css">
	.st0{fill:#F9D500;}
</style>
<path class="st0" d="M32,64c17.7,0,32,14.3,32,32v320c0,17.7-14.3,32-32,32S0,433.7,0,416V96C0,78.3,14.3,64,32,64z M246.6,137.4
	c12.5,12.5,12.5,32.7,0,45.2L205.3,224h229.4l-41.3-41.4c-12.5-12.5-12.5-32.7,0-45.2s32.7-12.5,45.2,0l96,96
	c12.5,12.5,12.5,32.7,0,45.2l-96,96c-12.5,12.5-32.7,12.5-45.2,0s-12.5-32.7,0-45.2l41.3-41.4H205.3l41.3,41.4
	c12.5,12.5,12.5,32.7,0,45.2s-32.7,12.5-45.2,0l-96-96c-12.5-12.5-12.5-32.7,0-45.2l96-96C213.9,124.9,234.1,124.9,246.6,137.4
	L246.6,137.4z M640,416c0,17.7-14.3,32-32,32s-32-14.3-32-32V96c0-17.7,14.3-32,32-32s32,14.3,32,32V416z"/>
</svg>
