<?xml version="1.0" encoding="utf-8"?>
<!-- Generator: Adobe Illustrator 26.0.2, SVG Export Plug-In . SVG Version: 6.00 Build 0)  -->
<svg version="1.1" id="Calque_1" xmlns="http://www.w3.org/2000/svg" xmlns:xlink="http://www.w3.org/1999/xlink" x="0px" y="0px"
	 viewBox="0 0 494.3 621.2" style="enable-background:new 0 0 494.3 621.2;" xml:space="preserve">
<style type="text/css">
	.st0{fill:#13AD8D;}
</style>
<path class="st0" d="M336,109.2c26.5,0,48,21.5,48,48v416c0,26.5-21.5,48-48,48h-96v-80c0-26.5-21.5-48-48-48s-48,21.5-48,48v80H48
	c-26.5,0-48-21.5-48-48v-416c0-26.5,21.5-48,48-48H336z M64,381.2c0,8.8,7.2,16,16,16h32c8.8,0,16-7.2,16-16v-32c0-8.8-7.2-16-16-16
	H80c-8.8,0-16,7.2-16,16V381.2z M176,333.2c-8.8,0-16,7.2-16,16v32c0,8.8,7.2,16,16,16h32c8.8,0,16-7.2,16-16v-32
	c0-8.8-7.2-16-16-16H176z M256,381.2c0,8.8,7.2,16,16,16h32c8.8,0,16-7.2,16-16v-32c0-8.8-7.2-16-16-16h-32c-8.8,0-16,7.2-16,16
	V381.2z M80,205.2c-8.8,0-16,7.2-16,16v32c0,8.8,7.2,16,16,16h32c8.8,0,16-7.2,16-16v-32c0-8.8-7.2-16-16-16H80z M160,253.2
	c0,8.8,7.2,16,16,16h32c8.8,0,16-7.2,16-16v-32c0-8.8-7.2-16-16-16h-32c-8.8,0-16,7.2-16,16V253.2z M272,205.2c-8.8,0-16,7.2-16,16
	v32c0,8.8,7.2,16,16,16h32c8.8,0,16-7.2,16-16v-32c0-8.8-7.2-16-16-16H272z"/>
<g>
	<path class="st0" d="M494.3,78c0,6-1.9,10.9-5.8,14.7c-3.8,3.8-8.7,5.8-14.7,5.8h-37.1v37.1c0,6-1.9,10.9-5.8,14.6
		c-3.8,3.8-8.7,5.7-14.7,5.7c-6,0-10.9-1.9-14.7-5.7c-3.8-3.8-5.8-8.7-5.8-14.6V98.5h-37.1c-6,0-10.9-1.9-14.7-5.8
		c-3.8-3.8-5.8-8.7-5.8-14.7c0-6.1,1.9-11,5.7-14.8c3.8-3.8,8.7-5.7,14.8-5.7h37.1V20.5c0-6.1,1.9-11,5.7-14.8
		c3.8-3.8,8.7-5.7,14.8-5.7c6.1,0,11,1.9,14.8,5.7c3.8,3.8,5.7,8.7,5.7,14.8v37.1h37.1c6.1,0,11,1.9,14.8,5.7
		C492.4,67.1,494.3,72,494.3,78z"/>
</g>
</svg>
