<?xml version="1.0" encoding="utf-8"?>
<!-- Generator: Adobe Illustrator 26.0.2, SVG Export Plug-In . SVG Version: 6.00 Build 0)  -->
<svg version="1.1" id="Calque_1" xmlns="http://www.w3.org/2000/svg" xmlns:xlink="http://www.w3.org/1999/xlink" x="0px" y="0px"
	 viewBox="0 0 512 512" style="enable-background:new 0 0 512 512;" xml:space="preserve">
<style type="text/css">
	.st0{fill:#333F90;}
</style>
<path class="st0" d="M16,96c0-26.5,21.5-48,48-48s48,21.5,48,48c0,26.5-21.5,48-48,48S16,122.5,16,96z M480,64c17.7,0,32,14.3,32,32
	c0,17.7-14.3,32-32,32H192c-17.7,0-32-14.3-32-32c0-17.7,14.3-32,32-32H480z M480,224c17.7,0,32,14.3,32,32c0,17.7-14.3,32-32,32
	H192c-17.7,0-32-14.3-32-32c0-17.7,14.3-32,32-32H480z M480,384c17.7,0,32,14.3,32,32s-14.3,32-32,32H192c-17.7,0-32-14.3-32-32
	s14.3-32,32-32H480z M16,416c0-26.5,21.5-48,48-48s48,21.5,48,48s-21.5,48-48,48S16,442.5,16,416z M112,256c0,26.5-21.5,48-48,48
	s-48-21.5-48-48s21.5-48,48-48S112,229.5,112,256z"/>
</svg>
