<?xml version="1.0" encoding="utf-8"?>
<!-- Generator: Adobe Illustrator 26.0.2, SVG Export Plug-In . SVG Version: 6.00 Build 0)  -->
<svg version="1.1" id="Calque_1" xmlns="http://www.w3.org/2000/svg" xmlns:xlink="http://www.w3.org/1999/xlink" x="0px" y="0px"
	 viewBox="0 0 512 512" style="enable-background:new 0 0 512 512;" xml:space="preserve">
<style type="text/css">
	.st0{fill:#C97EB3;}
</style>
<path class="st0" d="M495.9,132.2c9.9,5.7,16.1,16.3,16.1,27.8v320c0,17.7-14.3,32-32,32s-32-14.3-32-32V178.6L256,68.9L64,178.6
	V480c0,17.7-14.3,32-32,32S0,497.7,0,480V160c0-11.5,6.2-22.1,16.1-27.8l224-128c9-5.6,21.9-5.6,31.8,0L495.9,132.2z M216,168
	c0-22.1,17.9-40,40-40s40,17.9,40,40s-17.9,40-40,40S216,190.1,216,168z M224,512c-13.3,0-24-10.7-24-24V313.5l-26.9,49.9
	c-6.3,11.6-20.8,16-32.5,9.7c-12.5-6.3-16-20.8-9.7-32.5l37.8-70.3c15.4-28.5,45.2-47.2,77.5-47.2h19.6c32.3,0,62.1,18.7,77.5,47.2
	l37.8,70.3c6.3,11.7,1.9,26.2-9.7,32.5c-11.7,6.3-26.2,1.9-32.5-9.7L312,313.5V488c0,13.3-10.7,24-24,24s-24-10.7-24-24v-88h-16v88
	C248,501.3,237.3,512,224,512L224,512z"/>
</svg>
