<?xml version="1.0" encoding="utf-8"?>
<!-- Generator: Adobe Illustrator 26.0.2, SVG Export Plug-In . SVG Version: 6.00 Build 0)  -->
<svg version="1.1" id="Calque_1" xmlns="http://www.w3.org/2000/svg" xmlns:xlink="http://www.w3.org/1999/xlink" x="0px" y="0px"
	 viewBox="0 0 648.7 653.7" style="enable-background:new 0 0 648.7 653.7;" xml:space="preserve">
<style type="text/css">
	.st0{fill:#E64410;}
</style>
<path class="st0" d="M623.5,305.7c14.6,8.6,21.1,28.1,11.6,43.5c-7.7,14.6-27.2,21.1-42.6,11.6L319.1,210.3L47.5,360.8
	c-15.5,9.5-34.9,3-43.5-11.6c-8.6-15.4-3-34.9,12.4-43.5l288-160c9.6-5.4,21.4-5.4,31,0L623.5,305.7z M279.1,341.7
	c0-22.1,18.8-40,40-40c23,0,40,17.9,40,40s-17,40-40,40C297.9,381.7,279.1,363.8,279.1,341.7z M103.1,437.7c0-22.1,18.8-40,40-40
	c23,0,40,17.9,40,40s-17,40-40,40C121.9,477.7,103.1,459.8,103.1,437.7L103.1,437.7z M535.1,437.7c0,22.1-17,40-40,40
	c-21.2,0-40-17.9-40-40s18.8-40,40-40C518.1,397.7,535.1,415.6,535.1,437.7z M226.9,633.1l-27.8-49.9v38.5c0,17.7-13.4,32-32,32h-48
	c-16.8,0-32-14.3-32-32v-38.5l-26,49.9c-6.3,11.6-20.8,16-32.5,9.7s-16-20.8-9.8-32.5L56.7,540c15.3-28.5,45.2-46.3,77.5-46.3h19.6
	c16.3,0,31.9,4.5,45.4,12.6l33.5-62.3c15.4-28.5,45.2-47.2,77.5-47.2h19.6c32.3,0,62.1,18.7,77.5,47.2l33.5,62.3
	c13.5-8.1,29.1-12.6,45.4-12.6h19.6c32.3,0,62.1,17.8,77.5,46.3l37.8,70.3c6.3,11.7,1.9,26.2-9.7,32.5c-11.7,6.3-26.2,1.9-32.5-9.7
	l-27.8-49.9v38.5c0,17.7-13.4,32-32,32h-48c-16.8,0-32-14.3-32-32v-38.5l-26,49.9c-6.3,11.6-20.8,16-32.5,9.7
	c-12.5-6.3-16-20.8-9.7-32.5l36.3-67.5c-1.7-1.6-3.2-3.5-4.3-5.7l-27.8-49.9v54.5c0,17.7-13.4,32-32,32h-48c-16.8,0-32-14.3-32-32
	v-54.5l-26,49.9c-2,2.2-2.6,4.1-4.3,5.7l36.3,67.5c6.3,11.7,1.9,26.2-9.7,32.5C247.7,649.1,233.2,644.7,226.9,633.1L226.9,633.1z"/>
<g>
	<path class="st0" d="M648.7,104.4c0,8-2.6,14.5-7.7,19.7c-5.1,5.1-11.7,7.7-19.7,7.7h-49.6v49.6c0,8-2.6,14.5-7.7,19.6
		c-5.1,5.1-11.7,7.6-19.7,7.6c-8,0-14.6-2.5-19.7-7.6c-5.1-5.1-7.7-11.6-7.7-19.6v-49.6h-49.6c-8,0-14.5-2.6-19.7-7.7
		c-5.1-5.1-7.7-11.7-7.7-19.7c0-8.1,2.5-14.7,7.6-19.8c5.1-5.1,11.7-7.6,19.8-7.6h49.6V27.4c0-8.1,2.5-14.7,7.6-19.7
		c5.1-5.1,11.7-7.6,19.8-7.6c8.1,0,14.7,2.5,19.8,7.6c5.1,5.1,7.6,11.7,7.6,19.7V77h49.6c8.1,0,14.7,2.5,19.8,7.6
		C646.2,89.7,648.7,96.3,648.7,104.4z"/>
</g>
</svg>
