<?xml version="1.0" encoding="utf-8"?>
<!-- Generator: Adobe Illustrator 26.0.2, SVG Export Plug-In . SVG Version: 6.00 Build 0)  -->
<svg version="1.1" id="Calque_1" xmlns="http://www.w3.org/2000/svg" xmlns:xlink="http://www.w3.org/1999/xlink" x="0px" y="0px"
	 viewBox="0 0 640 512" style="enable-background:new 0 0 640 512;" xml:space="preserve">
<style type="text/css">
	.st0{fill:#2AA1CA;}
</style>
<g>
	<path class="st0" d="M439.8,398c14.3,9.1,27.7,18.2,41.7,26.2c13.5,7.8,19.9,18.9,18.8,34.3c-0.5,6.4-0.3,13.2-2.4,19.2
		c-4,11.4-12.9,17.3-24.9,18.2c-4.4,0.3-8.8,0.3-13.3,0.2c-96.6-0.4-193.3-0.7-289.9-1.1c-21.9-0.1-33.1-11.2-33.1-33
		c0-2.7,0-5.5,0-8.2c-0.2-11.7,4.5-20.6,14.6-26.9c13.4-8.3,26.7-16.8,40-25.3c1.7-1.1,3.4-2.3,5.8-3.9
		c-62.1-46.9-93.7-108.6-90-186.3c2.9-59.3,27.3-109.9,72.5-148.4C272-15.6,402-1.3,476.7,82.2C558.4,173.5,547.6,321.8,439.8,398z
		 M469.3,224.4c0.2-83.3-67.5-151.3-151.3-151.8c-82.4-0.6-151.1,68.1-151.2,151.2c-0.2,83.1,68.2,151.3,151.8,151.4
		C402.9,375.2,469.1,309,469.3,224.4z"/>
	<path class="st0" d="M197.3,223.4c1-68.1,51.1-120.7,121.6-121.1c65.8-0.4,120.8,55.1,120.7,120.8
		c-0.2,64.7-50.4,121.4-121.1,121.2C248.1,344,198.4,291.2,197.3,223.4z M242.5,220.9c-0.2,10.8,5,17.1,14.5,17.7
		c9.4,0.5,15.1-5.4,16.1-16.2c1.8-19.6,10.8-34.4,30.1-41.2c5.1-1.8,10.7-2.3,16-3.2c9.9-1.6,15.1-7.5,14.5-16.5
		c-0.6-8.8-7.1-14.1-17-14C276.2,147.9,243.2,180.5,242.5,220.9z"/>
</g>
</svg>
