<?xml version="1.0" encoding="utf-8"?>
<!-- Generator: Adobe Illustrator 26.0.2, SVG Export Plug-In . SVG Version: 6.00 Build 0)  -->
<svg version="1.1" id="Calque_1" xmlns="http://www.w3.org/2000/svg" xmlns:xlink="http://www.w3.org/1999/xlink" x="0px" y="0px"
	 viewBox="0 0 640 512" style="enable-background:new 0 0 640 512;" xml:space="preserve">
<style type="text/css">
	.st0{fill:#DD2F7C;}
</style>
<path class="st0" d="M319.1,351.1c-35.4,0-64,28.7-64,64s28.7,64,64,64s64-28.7,64-64S355.3,351.1,319.1,351.1z M320,191.1
	c-70.2,0-137.9,25.6-190.5,72c-13.2,12.6-14.5,32.8-2.8,46.1c11.8,13.2,32,14.5,45.2,2.8c40.9-36.1,93.5-56,148.1-56
	s107.3,19.9,148.1,56c6.1,5.4,13.7,8,21.2,8c8.8,0,17.7-3.7,24-10.8c11.7-13.3,10.5-33.5-2.8-45.2
	C457.9,217.6,390.3,191.1,320,191.1z M630.2,156.7C546.3,76.3,436.2,32,320,32S93.7,76.3,9.8,156.7C-2.9,169-3.3,189.2,8.9,202
	c12.2,12.8,32.5,13.1,45.2,0.9C125.1,133.1,220.4,96,320,96s193.1,38,265.8,106.9c6.3,5.9,14.2,8.9,22.2,8.9
	c8.4,0,16.8-3.3,23.1-9.8C643.3,189.2,642.9,168.1,630.2,156.7z"/>
</svg>
